<svg xmlns="http://www.w3.org/2000/svg" width="375" viewBox="0 0 375 375" height="375" version="1.0"><defs><clipPath id="a"><path d="M 42.691406 16.410156 L 309.691406 16.410156 L 309.691406 344.910156 L 42.691406 344.910156 Z M 42.691406 16.410156"/></clipPath><clipPath id="b"><path d="M 100 225.625 L 132 225.625 L 132 231 L 100 231 Z M 100 225.625"/></clipPath><clipPath id="c"><path d="M 106 278 L 164.03125 278 L 164.03125 311 L 106 311 Z M 106 278"/></clipPath><clipPath id="d"><path d="M 80.78125 227 L 151 227 L 151 313.375 L 80.78125 313.375 Z M 80.78125 227"/></clipPath></defs><path fill="#FFF" d="M-37.5 -37.5H412.5V412.5H-37.5z"/><path fill="#FFF" d="M-37.5 -37.5H412.5V412.5H-37.5z"/><path fill="#FFF" d="M-37.5 -37.5H412.5V412.5H-37.5z"/><g clip-path="url(#a)"><path fill="#1A202C" d="M 267.503906 201.3125 L 265.625 201.3125 L 235.628906 161.476562 L 205.628906 201.3125 L 203.753906 201.3125 L 203.753906 82.242188 L 81.65625 84.671875 C 76.519531 82.191406 54.8125 70.683594 54.8125 53.71875 C 54.8125 36.644531 73.523438 32.226562 76.535156 31.625 L 270.449219 28.753906 C 270.050781 30.441406 269.796875 32.136719 269.6875 33.835938 L 84.578125 38.082031 C 82.074219 38.140625 80.085938 40.21875 80.148438 42.722656 C 80.203125 45.1875 82.222656 47.152344 84.679688 47.152344 C 84.714844 47.152344 84.75 47.152344 84.785156 47.152344 L 270.285156 42.890625 C 270.667969 44.878906 271.207031 46.847656 271.863281 48.789062 L 105.203125 52.304688 C 102.695312 52.355469 100.710938 54.429688 100.765625 56.933594 C 100.816406 59.40625 102.835938 61.375 105.296875 61.375 C 105.328125 61.375 105.363281 61.375 105.394531 61.371094 L 275.195312 57.792969 C 275.390625 57.785156 275.574219 57.75 275.757812 57.722656 C 276.667969 59.429688 277.644531 61.101562 278.671875 62.722656 L 133.453125 66.203125 C 130.945312 66.265625 128.964844 68.34375 129.023438 70.847656 C 129.082031 73.3125 131.101562 75.273438 133.558594 75.273438 C 133.59375 75.273438 133.628906 75.273438 133.667969 75.273438 L 282.996094 71.691406 C 283.636719 71.679688 284.242188 71.527344 284.792969 71.273438 C 287.582031 74.773438 290.402344 77.882812 292.929688 80.46875 L 267.503906 80.972656 Z M 303.625 80.257812 C 303.585938 80.257812 303.542969 80.257812 303.5 80.257812 L 301.441406 80.300781 C 292.148438 71.5625 270.726562 48.679688 276.777344 28.585938 C 279.765625 28.179688 282.058594 25.625 282.011719 22.53125 C 281.964844 19.195312 279.3125 16.601562 275.875 16.578125 L 75.851562 19.539062 C 75.550781 19.546875 75.257812 19.570312 74.964844 19.617188 C 63.808594 21.441406 42.714844 30.914062 42.714844 53.71875 C 42.714844 56.375 43.039062 58.910156 43.613281 61.320312 L 43.613281 302.574219 C 43.613281 329.375 76.960938 343.742188 78.382812 344.339844 C 79.011719 344.609375 79.695312 344.746094 80.382812 344.746094 C 80.398438 344.746094 80.417969 344.746094 80.4375 344.746094 L 303.679688 342.289062 C 306.5 342.257812 308.769531 339.964844 308.769531 337.144531 L 308.769531 89.460938 C 309.355469 88.503906 309.695312 87.386719 309.671875 86.183594 C 309.601562 82.882812 306.90625 80.257812 303.625 80.257812"/></g><path fill="#CC067D" d="M 111.042969 276.675781 L 111.042969 291.917969 C 112.109375 288.042969 113.117188 283.449219 114.0625 278.195312 L 114.140625 277.757812 L 113.710938 277.644531 C 112.730469 277.378906 111.84375 277.058594 111.042969 276.675781 Z M 111.042969 276.675781"/><path fill="#CC067D" d="M 121.132812 237.78125 C 121.132812 234.574219 121.386719 232.296875 121.925781 230.808594 C 122.234375 229.960938 122.691406 229.257812 123.28125 228.695312 C 118.585938 229.050781 114.332031 230.101562 110.554688 231.863281 C 110.882812 233.300781 111.050781 235.25 111.050781 237.78125 L 111.050781 274.789062 C 111.96875 275.355469 112.929688 275.808594 113.9375 276.097656 L 114.457031 276.253906 L 114.546875 275.710938 C 116.6875 262.945312 118.085938 255.132812 118.714844 252.5 C 119.433594 249.589844 120.234375 247.074219 121.132812 244.953125 Z M 121.132812 237.78125"/><g clip-path="url(#b)"><path fill="#CC067D" d="M 110.121094 230.488281 C 115.050781 228.296875 120.59375 227.175781 126.660156 227.152344 C 127.859375 226.894531 129.363281 226.699219 131.226562 226.578125 L 131.226562 225.644531 C 127.410156 225.859375 122.34375 225.96875 116.15625 225.96875 C 109.550781 225.96875 104.445312 225.863281 100.964844 225.652344 L 100.964844 226.578125 C 103.6875 226.757812 105.671875 227.082031 107.003906 227.550781 C 108.472656 228.078125 109.511719 229.0625 110.121094 230.488281 Z M 110.121094 230.488281"/></g><g clip-path="url(#c)"><path fill="#CC067D" d="M 163.238281 295.644531 C 163.238281 291.921875 163.339844 288.820312 163.539062 286.386719 L 162.171875 286.386719 C 161.582031 292.125 160.664062 296.605469 159.453125 299.703125 C 158.144531 303.035156 156.035156 305.484375 153.1875 306.988281 C 150.390625 308.464844 146.3125 309.210938 141.066406 309.210938 L 131.976562 309.210938 C 128.878906 309.210938 126.660156 308.980469 125.203125 308.503906 C 123.605469 307.980469 122.503906 306.90625 121.925781 305.296875 C 121.394531 303.816406 121.132812 301.535156 121.132812 298.324219 L 121.132812 278.253906 C 120.707031 278.273438 120.285156 278.285156 119.855469 278.292969 L 119.4375 278.300781 L 119.378906 278.710938 C 117.5 292.027344 114.378906 301.472656 110.082031 306.785156 C 109.003906 308.140625 107.722656 309.339844 106.246094 310.371094 C 113.941406 310.222656 124.015625 310.152344 136.335938 310.152344 C 148.988281 310.152344 158.292969 310.261719 164.03125 310.484375 C 163.5 305.050781 163.238281 300.0625 163.238281 295.644531 Z M 163.238281 295.644531"/></g><path fill="#CC067D" d="M 119.597656 276.804688 L 120.164062 276.785156 C 120.488281 276.773438 120.808594 276.746094 121.136719 276.730469 L 121.136719 262.878906 C 120.964844 264.40625 120.773438 266.148438 120.574219 268.109375 C 120.234375 271.347656 119.933594 274.082031 119.675781 276.246094 Z M 119.597656 276.804688"/><g clip-path="url(#d)"><path fill="#CC067D" d="M 147.957031 237.539062 C 144.273438 231.039062 137.285156 227.71875 127.199219 227.648438 C 127.089844 227.648438 126.992188 227.640625 126.882812 227.640625 C 126.195312 227.640625 125.515625 227.660156 124.84375 227.6875 C 119.546875 227.90625 114.679688 229 110.300781 230.945312 C 110.113281 231.027344 109.933594 231.113281 109.75 231.195312 C 108.203125 231.917969 106.722656 232.734375 105.304688 233.667969 C 98.070312 238.40625 93.0625 245.1875 90.425781 253.808594 C 89.324219 257.445312 88.757812 260.941406 88.757812 264.191406 C 88.757812 267.417969 89.34375 270.464844 90.484375 273.25 C 92.554688 278.359375 95.949219 280.835938 100.875 280.835938 C 101.367188 280.835938 101.757812 280.71875 102.078125 280.476562 C 100.328125 280.1875 98.726562 279.457031 97.308594 278.300781 C 93.292969 275.144531 91.246094 269.722656 91.246094 262.195312 C 91.246094 254.644531 93.550781 247.714844 98.082031 241.601562 C 101.277344 237.222656 105.222656 233.898438 109.871094 231.640625 C 110.054688 231.550781 110.234375 231.460938 110.421875 231.375 C 114.421875 229.519531 118.949219 228.445312 123.964844 228.148438 C 124.464844 228.117188 124.964844 228.097656 125.472656 228.085938 C 125.933594 228.074219 126.394531 228.054688 126.871094 228.054688 C 131.398438 228.054688 135.304688 229.03125 138.484375 230.957031 C 143.96875 234.382812 146.742188 240.015625 146.742188 247.714844 C 146.742188 254.453125 144.539062 260.773438 140.183594 266.511719 C 135.296875 272.949219 129.089844 276.535156 121.726562 277.191406 C 121.527344 277.210938 121.328125 277.21875 121.125 277.230469 C 120.804688 277.25 120.488281 277.277344 120.167969 277.289062 L 119.027344 277.328125 L 119.164062 276.1875 C 119.417969 274.039062 119.71875 271.300781 120.058594 268.054688 C 120.40625 264.738281 120.707031 262.03125 120.964844 259.980469 C 121.007812 259.601562 121.066406 259.183594 121.125 258.746094 C 121.285156 257.527344 121.484375 256.097656 121.726562 254.457031 C 121.863281 253.554688 122.003906 252.589844 122.15625 251.566406 C 122.703125 247.933594 123.710938 244.566406 125.140625 241.566406 C 126.332031 239.171875 127.929688 237.632812 129.890625 236.984375 C 129.5 237.003906 129.101562 237.054688 128.703125 237.144531 C 126 237.761719 123.664062 240.339844 121.726562 244.804688 C 121.523438 245.277344 121.324219 245.765625 121.125 246.28125 C 120.425781 248.121094 119.777344 250.234375 119.195312 252.617188 C 118.574219 255.238281 117.175781 263.039062 115.03125 275.796875 L 114.847656 276.890625 L 113.789062 276.582031 C 112.832031 276.304688 111.917969 275.890625 111.042969 275.375 C 110.84375 275.261719 110.640625 275.136719 110.441406 275.007812 C 110.023438 274.734375 109.609375 274.4375 109.214844 274.109375 C 107.691406 272.839844 106.914062 271.203125 106.914062 269.253906 C 106.914062 268.527344 107.023438 267.792969 107.242188 267.066406 C 107.78125 265.492188 108.613281 264.617188 109.445312 264.140625 C 109.210938 264.167969 108.660156 264.355469 107.691406 265.324219 C 106.90625 266.113281 106.503906 267.308594 106.503906 268.867188 C 106.503906 271.976562 107.800781 274.261719 110.441406 275.789062 C 110.632812 275.898438 110.832031 276.007812 111.042969 276.109375 C 111.863281 276.523438 112.792969 276.871094 113.847656 277.160156 L 114.71875 277.398438 L 114.558594 278.285156 C 113.46875 284.339844 112.289062 289.523438 111.042969 293.753906 C 110.84375 294.429688 110.644531 295.078125 110.441406 295.703125 C 110.214844 296.398438 109.992188 297.0625 109.769531 297.691406 C 108.605469 300.9375 107.304688 303.597656 105.902344 305.597656 C 105.085938 306.75 104.148438 307.800781 103.113281 308.742188 C 102.847656 308.980469 102.578125 309.210938 102.296875 309.429688 C 101.867188 309.769531 101.417969 310.101562 100.957031 310.410156 C 100.820312 310.5 100.679688 310.59375 100.539062 310.6875 C 100.476562 310.722656 100.417969 310.757812 100.355469 310.796875 C 98.226562 312.082031 95.847656 312.746094 93.28125 312.746094 C 87.238281 312.746094 83.445312 310.003906 81.988281 304.582031 C 81.589844 303.25 81.386719 301.839844 81.386719 300.417969 C 81.386719 297.507812 82.296875 294.578125 84.097656 291.699219 C 86.664062 287.46875 90.292969 285.003906 94.914062 284.359375 C 94.820312 284.351562 94.71875 284.34375 94.609375 284.34375 C 92.519531 284.34375 90.542969 284.878906 88.742188 285.929688 C 86.917969 286.992188 85.429688 288.382812 84.320312 290.054688 C 83.175781 291.789062 82.289062 293.566406 81.679688 295.355469 C 81.082031 297.121094 80.78125 299.050781 80.78125 301.09375 C 80.78125 303.070312 81.476562 305.308594 82.839844 307.757812 C 83.695312 309.359375 85.179688 310.699219 87.265625 311.742188 C 89.394531 312.808594 92.023438 313.351562 95.082031 313.351562 C 98.140625 313.351562 100.964844 312.714844 103.46875 311.453125 C 103.746094 311.316406 104.007812 311.167969 104.273438 311.019531 C 104.632812 310.820312 104.976562 310.613281 105.316406 310.394531 C 106.621094 309.566406 107.773438 308.601562 108.78125 307.519531 C 109.070312 307.207031 109.34375 306.894531 109.609375 306.570312 C 109.632812 306.539062 109.660156 306.511719 109.683594 306.480469 C 113.921875 301.242188 117.015625 291.878906 118.875 278.652344 L 118.988281 277.816406 L 119.835938 277.808594 C 120.265625 277.804688 120.695312 277.792969 121.117188 277.773438 C 121.316406 277.757812 121.523438 277.746094 121.722656 277.734375 C 126.984375 277.378906 131.886719 275.761719 136.304688 272.917969 C 142.402344 268.875 146.679688 263.277344 149 256.28125 C 150.039062 253.152344 150.566406 249.957031 150.566406 246.777344 C 150.578125 243.652344 149.695312 240.550781 147.957031 237.539062 Z M 147.957031 237.539062"/></g></svg>